<?xml version="1.0" encoding="UTF-8"?><!DOCTYPE svg PUBLIC "-//W3C//DTD SVG 1.1//EN" "http://www.w3.org/Graphics/SVG/1.1/DTD/svg11.dtd"><svg xmlns="http://www.w3.org/2000/svg" xmlns:xlink="http://www.w3.org/1999/xlink"><defs>
<clipPath id="clip0">
<rect width="27" height="33.3033" fill="white" transform="translate(0 0.0859375)"/>
</clipPath>

<clipPath id="clip0">
<rect width="8.25" height="9" fill="white" transform="translate(0 9.0249) rotate(-90)"/>
</clipPath>

<clipPath id="clip0">
<rect width="17.0398" height="19.2" fill="white" transform="translate(0.0795898 0.919922)"/>
</clipPath>

<clipPath id="clip0">
<rect width="12" height="12" fill="white" transform="translate(0 0.790039)"/>
</clipPath>

<clipPath id="clip0">
<rect width="18" height="17.7081" fill="white" transform="translate(0 0.261719)"/>
</clipPath>

<clipPath id="clip0">
<rect width="20.8265" height="21.12" fill="white" transform="translate(0 0.959961)"/>
</clipPath>
</defs><symbol id="arrow-back" viewBox="0 0 12 16">
<g opacity="0.3">
<path d="M0.63847 5.09805C0.56899 5.17667 0.513866 5.27007 0.476254 5.37289C0.438641 5.47571 0.419281 5.58595 0.419281 5.69727C0.419281 5.8086 0.438641 5.91883 0.476254 6.02165C0.513866 6.12448 0.56899 6.21787 0.63847 6.29649L5.59841 11.9231C5.65363 11.9859 5.71922 12.0357 5.79142 12.0696C5.86363 12.1036 5.94103 12.1211 6.0192 12.1211C6.09737 12.1211 6.17478 12.1036 6.24698 12.0696C6.31918 12.0357 6.38477 11.9859 6.43999 11.9231L11.3999 6.29649C11.6924 5.96472 11.6924 5.42982 11.3999 5.09805C11.1075 4.76628 10.8004 5.04112 10.5079 5.37289L7.9079 8.3364L5.99993 10.4241L1.19995 5.09079C1.19995 5.09079 0.924965 4.76628 0.63847 5.09805Z" fill="black"/>
</g>
</symbol><symbol id="arrow" viewBox="0 0 9 19">
<path d="M8.8116 0.400608C8.71296 0.288944 8.59577 0.200351 8.46676 0.139903C8.33775 0.0794548 8.19945 0.0483398 8.05977 0.0483398C7.92009 0.0483398 7.78179 0.0794548 7.65278 0.139903C7.52377 0.200351 7.40659 0.288944 7.30795 0.400608L0.248437 8.37194C0.169684 8.46069 0.107204 8.5661 0.0645734 8.68214C0.0219433 8.79818 0 8.92258 0 9.04821C0 9.17384 0.0219433 9.29824 0.0645734 9.41428C0.107204 9.53033 0.169684 9.63574 0.248437 9.72448L7.30795 17.6958C7.72421 18.1658 8.39533 18.1658 8.8116 17.6958C9.22786 17.2258 8.88303 16.7322 8.46676 16.2622L4.74854 12.0836L2.12914 9.01725L8.8207 1.30298C8.8207 1.30298 9.22786 0.861046 8.8116 0.400608Z" fill="black"/>
</symbol><symbol id="border-level" viewBox="0 0 16 35">
<line x1="8.5" y1="22.8261" x2="8.5" y2="35" stroke="#CBCED9"/>
<line x1="8.5" x2="8.5" y2="12.1739" stroke="#CBCED9"/>
<line y1="17" x2="16" y2="17" stroke="#CBCED9"/>
</symbol><symbol id="button-delete" viewBox="0 0 21 21">
<circle cx="10.5" cy="10.5" r="10.5" fill="#EDEFF6"/>
<path d="M13.875 7.125L7.125 13.875" stroke="#AFB0B5" stroke-linecap="round" stroke-linejoin="round"/>
<path d="M7.125 7.125L13.875 13.875" stroke="#AFB0B5" stroke-linecap="round" stroke-linejoin="round"/>
</symbol><symbol id="direction" viewBox="0 0 8 11">
<path d="M3.64645 10.3536C3.84171 10.5488 4.15829 10.5488 4.35355 10.3536L7.53553 7.17157C7.7308 6.97631 7.7308 6.65973 7.53553 6.46447C7.34027 6.2692 7.02369 6.2692 6.82843 6.46447L4 9.29289L1.17157 6.46447C0.976311 6.2692 0.659728 6.2692 0.464466 6.46447C0.269204 6.65973 0.269204 6.97631 0.464466 7.17157L3.64645 10.3536ZM3.5 0L3.5 10H4.5L4.5 0L3.5 0Z" fill="#CBCED9"/>
</symbol><symbol id="filter_expand" viewBox="0 0 17 3">
<circle cx="1.5" cy="1.5" r="1.5" fill="#192144"/>
<circle cx="8.5" cy="1.5" r="1.5" fill="#192144"/>
<circle cx="15.5" cy="1.5" r="1.5" fill="#192144"/>
</symbol><symbol id="htmlacademy" viewBox="0 0 27 34">
<g clip-path="url(#clip0)">
<path d="M13.6426 0.101368L13.5 0.0859375L0 1.46443V25.5658L13.5 33.3892L27 25.5658V1.46443L13.6426 0.101368ZM25.2344 24.5885L13.5 31.3883L1.76561 24.5885V14.7093L13.4507 21.4834L13.4701 22.711L5.45351 18.0646L5.44295 19.2648L13.4894 23.9747L13.5088 25.2348L5.46408 20.5747L5.45351 21.7749L13.5 26.4847L21.6239 21.7509V20.5507V16.6484L25.2432 14.543L25.2344 24.5885ZM25.2344 13.2622L22.0147 15.1036L20.5325 15.9609L13.4666 11.8597L13.456 13.0599L19.4957 16.5593L19.4429 16.5901L19.3126 16.6638L18.4536 17.1456L13.4666 14.2583L13.456 15.4585L17.3921 17.7389L16.4591 18.3355L16.438 18.3475L13.4666 16.6416L13.456 17.8417L15.4029 18.9528L13.4155 20.1152L1.7973 13.3839L13.4349 6.56862L25.2344 13.2622ZM25.2344 12.062L13.4401 5.28786L1.76561 12.0552V3.01438L13.5 1.8142L25.2344 3.01438V12.062Z" fill="#192144"/>
</g>

</symbol><symbol id="icon-close-dropdown" viewBox="0 0 9 10">
<g clip-path="url(#clip0)">
<path d="M7.875 1.80615L1.125 7.99365" stroke="white" stroke-linecap="round" stroke-linejoin="round"/>
<path d="M1.125 1.80615L7.875 7.99365" stroke="white" stroke-linecap="round" stroke-linejoin="round"/>
</g>

</symbol><symbol id="icon_arrow_bend" viewBox="0 0 32 16">
<path fill-rule="evenodd" clip-rule="evenodd" d="M4 16H28C30.2091 16 32 14.2091 32 12V7C32 4.79086 30.2091 3 28 3H4V5H28C29.1046 5 30 5.89543 30 7V12C30 13.1046 29.1046 14 28 14H4V16Z" fill="white"/>
<path d="M0 4L9 0.535898V7.4641L0 4Z" fill="white"/>
</symbol><symbol id="icon_bicycle" viewBox="0 0 26 25">
<path d="M19.7031 21.875C18.7791 21.875 17.8759 21.6115 17.1076 21.1179C16.3393 20.6243 15.7405 19.9227 15.3869 19.1019C15.0333 18.2811 14.9408 17.3778 15.121 16.5064C15.3013 15.635 15.7462 14.8346 16.3996 14.2064C17.053 13.5781 17.8854 13.1503 18.7917 12.9769C19.6979 12.8036 20.6373 12.8926 21.491 13.2326C22.3446 13.5726 23.0743 14.1484 23.5876 14.8871C24.101 15.6258 24.375 16.4943 24.375 17.3828C24.3737 18.5738 23.881 19.7157 23.0052 20.5578C22.1293 21.4 20.9418 21.8737 19.7031 21.875ZM19.7031 14.4531C19.1005 14.4531 18.5114 14.6249 18.0104 14.9469C17.5093 15.2688 17.1188 15.7263 16.8882 16.2617C16.6576 16.797 16.5972 17.3861 16.7148 17.9544C16.8324 18.5227 17.1225 19.0447 17.5487 19.4544C17.9748 19.8641 18.5177 20.1432 19.1087 20.2562C19.6997 20.3692 20.3124 20.3112 20.8691 20.0895C21.4259 19.8678 21.9017 19.4922 22.2365 19.0105C22.5713 18.5287 22.75 17.9623 22.75 17.3828C22.7491 16.6061 22.4277 15.8614 21.8566 15.3122C21.2854 14.763 20.5109 14.454 19.7031 14.4531Z" fill="#1D2E5B"/>
<path d="M6.29688 21.875C5.37287 21.875 4.46961 21.6115 3.70132 21.1179C2.93304 20.6243 2.33423 19.9227 1.98063 19.1019C1.62702 18.2811 1.53451 17.3778 1.71477 16.5064C1.89504 15.635 2.33999 14.8346 2.99336 14.2064C3.64674 13.5781 4.47918 13.1503 5.38544 12.9769C6.29169 12.8036 7.23105 12.8926 8.08473 13.2326C8.9384 13.5726 9.66805 14.1484 10.1814 14.8871C10.6948 15.6258 10.9688 16.4943 10.9688 17.3828C10.9674 18.5738 10.4748 19.7157 9.59891 20.5578C8.72305 21.4 7.53552 21.8737 6.29688 21.875ZM6.29688 14.4531C5.69426 14.4531 5.10518 14.6249 4.60412 14.9469C4.10307 15.2688 3.71254 15.7263 3.48193 16.2617C3.25132 16.797 3.19098 17.3861 3.30855 17.9544C3.42611 18.5227 3.7163 19.0447 4.14241 19.4544C4.56852 19.8641 5.11142 20.1432 5.70246 20.2562C6.2935 20.3692 6.90612 20.3112 7.46286 20.0895C8.01961 19.8678 8.49547 19.4922 8.83026 19.0105C9.16506 18.5287 9.34375 17.9623 9.34375 17.3828C9.34281 16.6061 9.0215 15.8614 8.4503 15.3122C7.87911 14.763 7.10467 14.454 6.29688 14.4531Z" fill="#1D2E5B"/>
<path d="M16.2501 6.25005C16.4641 6.25076 16.6762 6.21067 16.874 6.1321C17.0718 6.05352 17.2515 5.93802 17.4026 5.79227C17.5537 5.64651 17.6732 5.47341 17.7543 5.28295C17.8354 5.09249 17.8765 4.88847 17.8751 4.68267C17.8774 4.4779 17.8373 4.27473 17.7571 4.08504C17.6768 3.89535 17.558 3.72295 17.4077 3.57792C17.2573 3.43289 17.0784 3.31814 16.8814 3.24038C16.6843 3.16262 16.4732 3.12341 16.2602 3.12505C16.0468 3.12441 15.8354 3.16419 15.638 3.24212C15.4406 3.32005 15.261 3.4346 15.1097 3.57924C14.9583 3.72388 14.8381 3.89577 14.7558 4.0851C14.6735 4.27442 14.6308 4.47748 14.6301 4.68267C14.6295 4.88786 14.6708 5.09116 14.7519 5.28098C14.8329 5.4708 14.9521 5.64341 15.1025 5.78895C15.2529 5.9345 15.4317 6.05013 15.6286 6.12924C15.8255 6.20836 16.0367 6.24941 16.2501 6.25005Z" fill="#1D2E5B"/>
<path d="M18.6646 9.37504H16.4425C16.406 9.37505 16.3702 9.36563 16.3389 9.34776C16.3075 9.32989 16.2817 9.30423 16.2642 9.27348L14.6524 6.43315C14.5389 6.22207 14.3752 6.03967 14.1747 5.90071C13.9742 5.76175 13.7425 5.67014 13.4983 5.6333C13.2541 5.59645 13.0044 5.6154 12.7692 5.68862C12.5341 5.76183 12.3202 5.88725 12.1448 6.05473L8.59727 9.49223C8.29923 9.78473 8.13006 10.1765 8.125 10.586C8.125 11.4356 8.76484 11.7383 9.06445 11.9092C10.5117 12.711 11.5309 13.2974 12.09 13.6231C12.1197 13.6405 12.1443 13.6649 12.1614 13.6941C12.1784 13.7233 12.1874 13.7561 12.1875 13.7896V17.1646C12.1875 17.585 12.5237 17.9458 12.9609 17.9668C13.0707 17.9719 13.1804 17.9555 13.2834 17.9187C13.3864 17.8818 13.4805 17.8253 13.5601 17.7524C13.6397 17.6796 13.7032 17.5919 13.7465 17.4949C13.7899 17.3978 13.8124 17.2932 13.8125 17.1875V12.9883C13.8126 12.8643 13.7819 12.742 13.7231 12.6317C13.6643 12.5213 13.579 12.426 13.4743 12.3536L11.5954 11.0542C11.5718 11.038 11.5521 11.0171 11.5376 10.993C11.5231 10.9688 11.5142 10.942 11.5114 10.9142C11.5086 10.8864 11.512 10.8584 11.5214 10.8321C11.5309 10.8057 11.546 10.7815 11.5659 10.7613L13.6988 8.57426C13.7206 8.55176 13.7477 8.53455 13.7778 8.52404C13.8079 8.51352 13.8402 8.51001 13.872 8.51377C13.9038 8.51753 13.9342 8.52846 13.9607 8.54568C13.9873 8.5629 14.0092 8.58591 14.0248 8.61284L15.1328 10.5357C15.2032 10.6576 15.3063 10.7591 15.4313 10.8298C15.5563 10.9005 15.6987 10.9377 15.8438 10.9375H18.6875C18.7976 10.9377 18.9065 10.9163 19.0077 10.8747C19.109 10.8331 19.2003 10.7722 19.2763 10.6956C19.3523 10.619 19.4113 10.5284 19.4497 10.4292C19.4882 10.3301 19.5053 10.2244 19.5 10.1187C19.4787 9.69829 19.1019 9.37504 18.6646 9.37504Z" fill="#1D2E5B"/>
</symbol><symbol id="icon_bus" viewBox="0 0 18 21">
<g clip-path="url(#clip0)">
<path d="M4.34046 13.9485C4.34046 13.5699 4.20185 13.2467 3.92462 12.9788C3.64739 12.711 3.31288 12.5771 2.92106 12.5771C2.52925 12.5771 2.19473 12.711 1.91751 12.9788C1.64028 13.2467 1.50167 13.5699 1.50167 13.9485C1.50167 14.3271 1.64028 14.6503 1.91751 14.9181C2.19473 15.186 2.52925 15.3199 2.92106 15.3199C3.31288 15.3199 3.64739 15.186 3.92462 14.9181C4.20185 14.6503 4.34046 14.3271 4.34046 13.9485ZM15.6956 13.9485C15.6956 13.5699 15.557 13.2467 15.2798 12.9788C15.0025 12.711 14.668 12.5771 14.2762 12.5771C13.8844 12.5771 13.5499 12.711 13.2727 12.9788C12.9954 13.2467 12.8568 13.5699 12.8568 13.9485C12.8568 14.3271 12.9954 14.6503 13.2727 14.9181C13.5499 15.186 13.8844 15.3199 14.2762 15.3199C14.668 15.3199 15.0025 15.186 15.2798 14.9181C15.557 14.6503 15.6956 14.3271 15.6956 13.9485ZM15.1855 9.70563L14.3871 5.59135C14.3501 5.42706 14.267 5.29313 14.1376 5.18956C14.0082 5.08599 13.8585 5.0342 13.6885 5.0342H3.50878C3.33875 5.0342 3.18905 5.08599 3.05968 5.18956C2.9303 5.29313 2.84714 5.42706 2.81017 5.59135L2.01176 9.70563C1.9748 9.91992 2.02655 10.1092 2.16701 10.2735C2.30747 10.4378 2.48859 10.5199 2.71037 10.5199H14.4869C14.7087 10.5199 14.8898 10.4378 15.0303 10.2735C15.1707 10.1092 15.2225 9.91992 15.1855 9.70563ZM12.6794 3.14849C12.6794 3.00563 12.6276 2.88421 12.5242 2.78421C12.4207 2.68421 12.295 2.63421 12.1471 2.63421H5.05015C4.9023 2.63421 4.77663 2.68421 4.67313 2.78421C4.56963 2.88421 4.51788 3.00563 4.51788 3.14849C4.51788 3.29135 4.56963 3.41278 4.67313 3.51278C4.77663 3.61278 4.9023 3.66278 5.05015 3.66278H12.1471C12.295 3.66278 12.4207 3.61278 12.5242 3.51278C12.6276 3.41278 12.6794 3.29135 12.6794 3.14849ZM17.115 10.9163V17.3771H15.6956V18.7485C15.6956 19.1271 15.557 19.4503 15.2798 19.7181C15.0025 19.986 14.668 20.1199 14.2762 20.1199C13.8844 20.1199 13.5499 19.986 13.2727 19.7181C12.9954 19.4503 12.8568 19.1271 12.8568 18.7485V17.3771H4.34046V18.7485C4.34046 19.1271 4.20185 19.4503 3.92462 19.7181C3.64739 19.986 3.31288 20.1199 2.92106 20.1199C2.52925 20.1199 2.19473 19.986 1.91751 19.7181C1.64028 19.4503 1.50167 19.1271 1.50167 18.7485V17.3771H0.0822754V10.9163C0.0822754 10.1163 0.174684 9.31992 0.359501 8.52706L1.50167 3.66278C1.5682 3.10563 1.9286 2.61635 2.58285 2.19492C3.2371 1.77349 4.08726 1.45564 5.13332 1.24135C6.17939 1.02706 7.33449 0.919922 8.59864 0.919922C9.86279 0.919922 11.0179 1.02706 12.064 1.24135C13.11 1.45564 13.9602 1.77349 14.6144 2.19492C15.2687 2.61635 15.6291 3.10563 15.6956 3.66278L16.86 8.52706C17.03 9.25563 17.115 10.0521 17.115 10.9163Z" fill="#1D2E5B"/>
</g>

</symbol><symbol id="icon_businessman" viewBox="0 0 28 28">
<path d="M23.3758 23.2418V19.8933C23.3758 18.9558 23.2418 18.0182 22.7061 17.0806C22.1703 16.143 21.5006 15.3394 20.5631 14.8036C19.6255 14.1339 17.6164 14 16.6788 14L14.5358 16.277L15.3394 18.0182V22.0364L14 23.5097L12.6606 22.0364V18.0182L13.5982 16.277L11.3212 14C10.2497 14 8.24063 14.1339 7.30306 14.8036C6.36548 15.3394 5.82972 16.143 5.29396 17.0806C4.75821 18.0182 4.62427 18.8218 4.62427 19.8933V23.2418C4.62427 23.2418 8.10669 24.7151 14 24.7151C19.8934 24.7151 23.3758 23.2418 23.3758 23.2418Z" fill="#132576"/>
<path d="M14 3.41895C11.4551 3.41895 9.98178 5.82985 10.3836 8.50864C10.7854 11.1874 12.1248 13.0626 14 13.0626C15.8751 13.0626 17.2145 11.1874 17.6163 8.50864C18.0181 5.69592 16.5448 3.41895 14 3.41895Z" fill="#132576"/>
</symbol><symbol id="icon_call" viewBox="0 0 19 19">
<path d="M9.77429 8.22389C9.77429 8.41289 9.92792 8.56139 10.1157 8.56139C10.5048 8.56139 10.8189 8.87526 10.8189 9.25664C10.8189 9.44226 10.9725 9.59414 11.1603 9.59414C11.348 9.59414 11.5017 9.44226 11.5017 9.25664C11.5017 8.50064 10.8804 7.88639 10.1157 7.88639C9.92792 7.88639 9.77429 8.03827 9.77429 8.22389ZM15.332 9.59414C15.5231 9.59414 15.6733 9.44226 15.6733 9.25664C15.6733 6.22589 13.1813 3.76215 10.1157 3.76215C9.92792 3.76215 9.77429 3.914 9.77429 4.09965C9.77429 4.28527 9.92792 4.43715 10.1157 4.43715C12.8057 4.43715 14.9906 6.60051 14.9906 9.25664C14.9906 9.44226 15.1442 9.59414 15.332 9.59414Z" fill="#161C35"/>
<path d="M12.9047 9.25661C12.9047 9.44223 13.0583 9.59411 13.2461 9.59411C13.4339 9.59411 13.5875 9.44223 13.5875 9.25661C13.5875 7.36324 12.0308 5.82424 10.1157 5.82424C9.9279 5.82424 9.77427 5.97612 9.77427 6.16174C9.77427 6.35074 9.9279 6.49924 10.1157 6.49924C11.6553 6.49924 12.9047 7.73786 12.9047 9.25661ZM10.1157 1.69998C9.9279 1.69998 9.77427 1.85186 9.77427 2.03748C9.77427 2.22312 9.9279 2.37498 10.1157 2.37498C13.9562 2.37498 17.0798 5.46312 17.0798 9.25661C17.0798 9.44223 17.23 9.59411 17.4212 9.59411C17.6089 9.59411 17.7626 9.44223 17.7626 9.25661C17.7626 5.0885 14.3317 1.69998 10.1157 1.69998ZM13.4509 12.8139L13.0037 13.0535C12.2493 13.4619 11.6622 14.5812 10.7312 13.7375L8.30011 11.3L6.20004 9.25661C5.14495 7.92348 6.32635 7.60623 6.73941 6.85699L6.98179 6.41825C7.25489 5.91873 7.35388 5.35849 7.27196 4.79823C7.19345 4.23799 6.93741 3.72836 6.52775 3.32336C6.02935 2.83062 5.36707 2.56062 4.66042 2.56062C3.95376 2.56062 3.28807 2.83062 2.78964 3.32336L2.61556 3.49886C1.69383 4.41012 1.588 5.97948 2.31514 7.92348C3.0013 9.77973 4.3839 11.7912 6.20004 13.5867C8.96862 16.3239 12.0513 17.9 14.2634 17.9C15.1373 17.9 15.8781 17.6536 16.4039 17.1339L16.5814 16.9584C17.0764 16.469 17.3529 15.8142 17.3563 15.1089C17.3529 14.4204 17.0695 13.7454 16.5814 13.2627C15.7587 12.4494 14.4717 12.2671 13.4509 12.8139Z" fill="#161C35"/>
</symbol><symbol id="icon_close" viewBox="0 0 16 16">
<path d="M14 2L2 14" stroke="#192144" stroke-width="2" stroke-linecap="round" stroke-linejoin="round"/>
<path d="M2 2L14 14" stroke="#192144" stroke-width="2" stroke-linecap="round" stroke-linejoin="round"/>
</symbol><symbol id="icon_close_point" viewBox="0 0 24 22">
<g opacity="0.1">
<path d="M21 2.75L3 19.25" stroke="black" stroke-width="1.7" stroke-linecap="round" stroke-linejoin="round"/>
<path d="M3 2.75L21 19.25" stroke="black" stroke-width="1.7" stroke-linecap="round" stroke-linejoin="round"/>
</g>
</symbol><symbol id="icon_facebook" viewBox="0 0 11 21">
<path d="M7.48786 20.8125H2.12929V11.1375H0V6.3525H2.06643C1.90929 4.185 2.30214 2.6025 3.26071 1.5225C3.71777 1.04316 4.27461 0.66015 4.89562 0.397985C5.51662 0.13582 6.18812 0.000268301 6.86714 0L10.6229 0V4.6125H7.66857C7.49452 5.1766 7.42799 5.76595 7.47214 6.3525H10.615V11.1375H7.47214L7.48786 20.8125ZM3.31571 19.6875H6.28571V10.0125H9.42857V7.5H6.28571V6.93C6.28571 5.43 6.28571 4.0875 7.07143 3.585L7.22071 3.4875H9.42857V1.125H6.89857C6.38444 1.11866 5.87465 1.21553 5.40225 1.40933C4.92986 1.60314 4.50541 1.88955 4.15643 2.25C3.37071 3.1725 3.04857 4.7175 3.29214 6.855L3.37071 7.4775H1.17857V10.0125H3.31571V19.6875Z" fill="#192144"/>
</symbol><symbol id="icon_filter" viewBox="0 0 16 10">
<rect x="7.17395" width="7.82609" height="2" fill="#192144"/>
<rect x="7.17383" y="8" width="7.82609" height="2" fill="#192144"/>
<rect y="4" width="7.82609" height="2" fill="#192144"/>
<rect x="3.91309" width="1.95652" height="2" fill="#192144"/>
<rect x="3.91309" y="8" width="1.95652" height="2" fill="#192144"/>
<rect x="9.13037" y="4" width="1.95652" height="2" fill="#192144"/>
<rect width="2.6087" height="2" fill="#192144"/>
<rect y="8" width="2.6087" height="2" fill="#192144"/>
<rect x="12.3914" y="4" width="2.6087" height="2" fill="#192144"/>
</symbol><symbol id="icon_heart" viewBox="0 0 12 13">
<g clip-path="url(#clip0)">
<g opacity="0.5">
<path fill-rule="evenodd" clip-rule="evenodd" d="M6 5.66465L6.6705 4.25538C6.837 3.90641 7.12575 3.40462 7.5345 2.99894C7.9365 2.59955 8.418 2.32778 9 2.32778C10.257 2.32778 11.25 3.37233 11.25 4.62799C11.25 5.58194 10.8345 6.25546 9.849 7.28267C9.59625 7.54578 9.30825 7.83015 8.9895 8.14367C8.1585 8.96293 7.125 9.98226 6 11.3451C4.875 9.98226 3.8415 8.96293 3.0105 8.14367C2.69175 7.83015 2.403 7.54499 2.151 7.28267C1.1655 6.25546 0.75 5.58194 0.75 4.62799C0.75 3.37233 1.743 2.32778 3 2.32778C3.582 2.32778 4.0635 2.59955 4.4655 2.99894C4.87425 3.40462 5.163 3.90641 5.3295 4.25538L6 5.66465ZM6.294 12.1966C6.25788 12.2415 6.21286 12.2777 6.16209 12.3024C6.11131 12.3272 6.05599 12.34 6 12.34C5.94401 12.34 5.8887 12.3272 5.83792 12.3024C5.78714 12.2777 5.74212 12.2415 5.706 12.1966C4.50525 10.6983 3.4185 9.62699 2.52375 8.74551C0.975 7.21808 0 6.25782 0 4.62799C0 2.92253 1.3425 1.54004 3 1.54004C4.2 1.54004 5.03925 2.36717 5.553 3.12182C5.748 3.40935 5.8965 3.68585 6 3.90326C6.12975 3.63116 6.27918 3.36991 6.447 3.12182C6.96075 2.36638 7.8 1.54004 9 1.54004C10.6575 1.54004 12 2.92253 12 4.62799C12 6.25782 11.025 7.21808 9.47625 8.74551C8.5815 9.62778 7.49475 10.6991 6.294 12.1958V12.1966Z" fill="#192144"/>
</g>
</g>

</symbol><symbol id="icon_instagram" viewBox="0 0 18 18">
<g clip-path="url(#clip0)">
<path d="M12.9601 2.03319C13.8188 2.03506 14.6418 2.37148 15.249 2.96885C15.8562 3.56621 16.1982 4.37586 16.2001 5.22066V13.0122C16.1982 13.857 15.8562 14.6667 15.249 15.2641C14.6418 15.8614 13.8188 16.1978 12.9601 16.1997H5.04009C4.18262 16.196 3.36147 15.8587 2.75581 15.2616C2.15016 14.6644 1.80919 13.8558 1.80729 13.0122V5.22066C1.80919 4.37709 2.15016 3.5685 2.75581 2.97134C3.36147 2.37418 4.18262 2.03693 5.04009 2.03319H12.9601ZM12.9601 0.970703H5.04009C3.89436 0.970703 2.79555 1.41846 1.98539 2.21549C1.17523 3.01251 0.720093 4.0935 0.720093 5.22066L0.720093 13.0122C0.720093 14.1394 1.17523 15.2204 1.98539 16.0174C2.79555 16.8144 3.89436 17.2622 5.04009 17.2622H12.9601C14.1058 17.2622 15.2046 16.8144 16.0148 16.0174C16.8249 15.2204 17.2801 14.1394 17.2801 13.0122V5.22066C17.2801 4.0935 16.8249 3.01251 16.0148 2.21549C15.2046 1.41846 14.1058 0.970703 12.9601 0.970703V0.970703Z" fill="#192144"/>
<path d="M9.00703 5.98486C9.63787 5.98486 10.2545 6.16889 10.7791 6.51369C11.3036 6.85848 11.7124 7.34855 11.9538 7.92193C12.1953 8.4953 12.2584 9.12622 12.1353 9.73491C12.0123 10.3436 11.7085 10.9027 11.2624 11.3416C10.8163 11.7804 10.248 12.0793 9.62929 12.2003C9.01057 12.3214 8.36924 12.2593 7.78642 12.0218C7.2036 11.7843 6.70545 11.3821 6.35497 10.8661C6.00449 10.35 5.81743 9.74336 5.81743 9.12274C5.81648 8.71041 5.89833 8.30195 6.05829 7.92082C6.21824 7.53969 6.45315 7.19341 6.74952 6.90184C7.04589 6.61027 7.39789 6.37918 7.7853 6.22181C8.17271 6.06445 8.5879 5.98392 9.00703 5.98486V5.98486ZM9.00703 4.92237C8.16228 4.92097 7.33609 5.16612 6.63301 5.62681C5.92993 6.0875 5.38156 6.74302 5.0573 7.51042C4.73304 8.27781 4.64746 9.12259 4.81139 9.93784C4.97532 10.7531 5.38139 11.5022 5.97822 12.0903C6.57504 12.6785 7.3358 13.0792 8.16422 13.2419C8.99264 13.4045 9.85148 13.3218 10.6321 13.0041C11.4127 12.6863 12.0799 12.148 12.5494 11.4571C13.0188 10.7662 13.2694 9.9538 13.2694 9.12274C13.2704 8.57148 13.1608 8.02544 12.947 7.51586C12.7333 7.00629 12.4194 6.54319 12.0236 6.15306C11.6277 5.76293 11.1575 5.45342 10.6398 5.24224C10.1222 5.03107 9.56738 4.92237 9.00703 4.92237Z" fill="#192144"/>
<path d="M13.4282 5.73083C13.961 5.73083 14.393 5.30588 14.393 4.78168C14.393 4.25747 13.961 3.83252 13.4282 3.83252C12.8953 3.83252 12.4634 4.25747 12.4634 4.78168C12.4634 5.30588 12.8953 5.73083 13.4282 5.73083Z" fill="#192144"/>
</g>

</symbol><symbol id="icon_letter" viewBox="0 0 24 25">
<path fill-rule="evenodd" clip-rule="evenodd" d="M19.1393 16.4663L14.8089 12.5L19.1393 8.53365L18.5488 7.90264L12.25 13.6719L5.95117 7.90264L5.36066 8.53365L9.69108 12.5L5.36066 16.4663L5.95117 17.0974L10.3308 13.0859L12.25 14.8438L14.1691 13.0859L18.5488 17.0974L19.1393 16.4663ZM4.57593 6.25C3.76692 6.25 3.11108 6.94884 3.11108 7.80786V17.1921C3.11108 18.0525 3.7616 18.75 4.57593 18.75H19.924C20.733 18.75 21.3889 18.0512 21.3889 17.1921V7.80786C21.3889 6.94748 20.7383 6.25 19.924 6.25H4.57593Z" fill="#FFD74B"/>
</symbol><symbol id="icon_location" viewBox="0 0 21 21">
<path d="M10.5 0C6.15169 0 2.625 3.52669 2.625 7.875C2.625 12.9334 6.42846 15.1449 7.26923 16.1538C9.28846 18.5769 9.40257 21 10.5 21C11.5974 21 11.7115 18.5769 13.7308 16.1538C14.5715 15.1449 18.375 12.9334 18.375 7.875C18.375 3.52669 14.8483 0 10.5 0ZM10.5 13.125C7.60069 13.125 5.25 10.7743 5.25 7.875C5.25 4.97569 7.60069 2.625 10.5 2.625C13.3993 2.625 15.75 4.97569 15.75 7.875C15.75 10.7743 13.3993 13.125 10.5 13.125ZM10.5 5.25C9.051 5.25 7.875 6.426 7.875 7.875C7.875 9.324 9.051 10.5 10.5 10.5C11.949 10.5 13.125 9.324 13.125 7.875C13.125 6.426 11.949 5.25 10.5 5.25Z" fill="#FFD74B"/>
<ellipse cx="10.5" cy="7.875" rx="0.875001" ry="0.875" fill="#161C35"/>
</symbol><symbol id="icon_mail" viewBox="0 0 19 17">
<path d="M2.0166 3.32528L8.7666 7.55572C8.9934 7.69747 9.2868 7.76467 9.582 7.76467C9.8772 7.76467 10.1706 7.69747 10.3974 7.55572L17.1474 3.32528C17.5875 3.04913 18.0033 1.97498 17.196 1.97498H1.9689C1.1616 1.97498 1.5774 3.04913 2.0166 3.32528ZM17.3517 5.63842L10.3974 9.86677C10.0914 10.0537 9.8772 10.0757 9.582 10.0757C9.2868 10.0757 9.0726 10.0537 8.7666 9.86677C8.4606 9.67987 2.3469 5.94082 1.8474 5.63737C1.4964 5.42317 1.5 5.67412 1.5 5.86732V13.525C1.5 13.966 2.0094 14.575 2.4 14.575H16.8C17.1906 14.575 17.7 13.966 17.7 13.525V5.86837C17.7 5.67517 17.7036 5.42422 17.3517 5.63842Z" fill="#161C35"/>
</symbol><symbol id="icon_plane" viewBox="0 0 21 23">
<g clip-path="url(#clip0)">
<path d="M16.7831 2.09314C16.0546 2.26635 15.3227 2.44038 15.0504 2.91723L12.9433 7.11585L1.62916 9.8059L1.17076 11.1474L9.82861 11.9662L8.35967 15.6009L5.07624 16.3816L4.25187 17.8101L6.62062 18.0673L6.89073 19.2357C7.01174 19.6498 7.43649 19.9263 7.79903 19.8401L8.89351 19.5799L10.1622 21.7433L10.9866 20.3148L10.1763 16.8098L12.5535 13.7795L17.0895 21.741L18.0042 20.7031L15.2128 8.62921L17.7762 4.73424C18.0519 4.25657 17.8721 3.47891 17.6914 2.69759C17.6019 2.31059 17.1457 2.00694 16.7831 2.09314Z" fill="#101D41"/>
</g>

</symbol><symbol id="icon_plus" viewBox="0 0 14 14">
<line x1="7" x2="7" y2="14" stroke="#C2C4C9" stroke-width="2"/>
<line y1="7" x2="14" y2="7" stroke="#C2C4C9" stroke-width="2"/>
</symbol><symbol id="icon_plus_more" viewBox="0 0 18 18">
<rect y="8.30762" width="18" height="1.38461" rx="0.692307" fill="#1D2E5B"/>
<rect x="8.30774" y="18" width="18" height="1.38461" rx="0.692307" transform="rotate(-90 8.30774 18)" fill="#1D2E5B"/>
</symbol><symbol id="icon_run" viewBox="0 0 21 24">
<path d="M14.9758 5.75992C15.9264 5.75992 16.697 4.90031 16.697 3.83992C16.697 2.77954 15.9264 1.91992 14.9758 1.91992C14.0252 1.91992 13.2546 2.77954 13.2546 3.83992C13.2546 4.90031 14.0252 5.75992 14.9758 5.75992Z" fill="#1D2E5B"/>
<path d="M13.9233 10.5302C14.1209 10.8586 14.4043 11.1113 14.735 11.2538C15.0657 11.3964 15.4277 11.4219 15.7719 11.327L18.6256 10.5312L18.21 8.66881L15.3562 9.46465L14.1695 7.48033C13.9159 7.05655 13.5224 6.76184 13.0748 6.66049L9.76493 5.92129C9.39465 5.83839 9.01021 5.89379 8.67097 6.07893C8.33173 6.26406 8.05657 6.56863 7.88797 6.94561L6.4611 10.129L8.00071 10.9882L9.42758 7.80385L11.1204 8.18209L6.74338 16.32H2.92749V18.24H6.74338C7.34407 18.24 7.90949 17.8829 8.2193 17.3078L9.86993 14.2397L14.3184 15.2323L15.8812 20.4634L17.5129 19.8557L15.9509 14.6256C15.8545 14.3045 15.684 14.0174 15.4564 13.7933C15.2289 13.5691 14.9524 13.4158 14.6548 13.3488L12.0395 12.7661L13.5645 9.93025L13.9233 10.5302Z" fill="#1D2E5B"/>
</symbol><symbol id="icon_telephone" viewBox="0 0 19 17">
<path fill-rule="evenodd" clip-rule="evenodd" d="M9.49995 1.08615C6.7035 1.08615 3.90033 1.55882 2.88322 2.50093C2.03934 3.28252 1.75804 4.66329 1.66321 5.53753C1.66321 5.53753 1.65015 5.62393 1.65015 5.66109C1.65015 6.00391 1.94445 6.27887 2.30427 6.27887C2.34678 6.27887 3.92002 6.15837 4.86851 6.08425C4.89134 6.08112 4.91434 6.07806 4.93716 6.07191C5.29043 6.0627 5.57505 5.7908 5.57505 5.45413L5.57822 4.237C5.57822 3.86014 5.90214 3.55737 6.3012 3.55737H12.6987C13.0978 3.55737 13.4218 3.86011 13.4218 4.237L13.425 5.45413C13.425 5.7908 13.7095 6.0627 14.0628 6.07191C14.0854 6.0781 14.1085 6.08112 14.1315 6.08425C15.0801 6.15834 16.6533 6.27887 16.6957 6.27887C17.0553 6.27887 17.3499 6.00391 17.3499 5.66109C17.3499 5.62393 17.3368 5.53753 17.3368 5.53753C17.2419 4.66329 16.9609 3.28255 16.117 2.50093C15.0996 1.55882 12.2964 1.08615 9.49995 1.08615ZM9.49995 9.11773C8.7771 9.11773 8.19164 9.67064 8.19164 10.3533C8.19164 11.036 8.7771 11.5889 9.49995 11.5889C10.2228 11.5889 10.8082 11.036 10.8082 10.3533C10.8082 9.67064 10.2228 9.11773 9.49995 9.11773ZM8.51873 6.33752V5.56528C8.51873 5.13902 8.15236 4.79304 7.70106 4.79304C7.24977 4.79304 6.8834 5.13905 6.8834 5.56528V6.33752L2.47095 10.7889C2.16689 11.07 1.97713 11.4622 1.97713 11.8948V13.1335C1.97713 13.8162 2.56264 14.3691 3.28545 14.3691H3.61254V15.1414C3.61254 15.5677 3.97895 15.9136 4.43025 15.9136C4.88154 15.9136 5.24792 15.5677 5.24792 15.1414V14.3691H13.752V15.1414C13.752 15.5677 14.1182 15.9136 14.5697 15.9136C15.021 15.9136 15.3873 15.5677 15.3873 15.1414V14.3691H15.7144C16.4373 14.3691 17.0227 13.8162 17.0227 13.1335V11.8948C17.0227 11.4622 16.833 11.07 16.5289 10.7889L12.1166 6.33752V5.56528C12.1166 5.13902 11.7502 4.79304 11.2989 4.79304C10.8476 4.79304 10.4812 5.13905 10.4812 5.56528V6.33752H8.51873ZM9.49995 7.8821C10.9456 7.8821 12.1166 8.98799 12.1166 10.3533C12.1166 11.7187 10.9457 12.8247 9.49995 12.8247C8.05426 12.8247 6.88336 11.7187 6.88336 10.3533C6.88336 8.98795 8.05426 7.8821 9.49995 7.8821Z" fill="#FFD74B"/>
</symbol><symbol id="icon_user" viewBox="0 0 14 14">
<path opacity="0.1" d="M4.375 3.92978C4.375 5.45321 5.55275 6.69294 7 6.69294C8.44725 6.69294 9.625 5.45321 9.625 3.92978C9.625 2.40636 8.44725 1.16663 7 1.16663C5.55275 1.16663 4.375 2.40636 4.375 3.92978ZM11.6667 12.8333H12.25V12.2193C12.25 9.8497 10.4177 7.92101 8.16667 7.92101H5.83333C3.58167 7.92101 1.75 9.8497 1.75 12.2193V12.8333H11.6667Z" fill="#192144"/>
</symbol><symbol id="icon_vkontakte" viewBox="0 0 23 12">
<path d="M17.7664 11.8331C17.219 11.8207 16.6854 11.6573 16.2232 11.3606C15.7407 11.031 15.2975 10.6459 14.9026 10.2132C14.5761 9.88315 14.0345 9.32815 13.8268 9.32815C13.619 9.32815 13.4706 10.0181 13.478 10.5056C13.4812 10.8422 13.3564 11.167 13.1293 11.4131C12.8712 11.6263 12.5561 11.7569 12.2242 11.7881H10.7997C8.75222 11.7426 6.79178 10.9425 5.28708 9.53815C2.55676 7.01065 0.21224 2.18065 0.115789 1.97065C0.0237889 1.79521 -0.0147389 1.59616 0.00506792 1.3986C0.0248747 1.20105 0.102128 1.01386 0.227079 0.860649C0.509857 0.622256 0.867951 0.494496 1.23611 0.500649H4.26321H4.35224C4.6027 0.537588 4.84277 0.626997 5.05708 0.763149C5.25875 0.899848 5.42022 1.08899 5.5245 1.31065C5.8444 2.00295 6.2113 2.67204 6.62256 3.31315C7.5945 4.81315 8.02482 5.15815 8.18063 5.23315C8.35396 4.52985 8.40169 3.80091 8.3216 3.08065C8.3476 2.7526 8.29412 2.4231 8.16579 2.12065C8.00289 1.98893 7.80288 1.91278 7.5945 1.90315L7.05289 1.38565C6.94901 0.890649 7.49063 0.463149 7.86902 0.298149C8.62414 0.0589723 9.41638 -0.0376377 10.2061 0.013149H10.7329C11.2686 -0.000953053 11.8041 0.0494006 12.328 0.163149C13.5893 0.433149 13.5448 1.46065 13.4929 2.64565C13.4929 2.99065 13.4558 3.39565 13.4558 3.86065C13.4558 3.97315 13.4558 4.09315 13.4558 4.22065C13.4266 4.54717 13.4492 4.87631 13.5226 5.19565C14.1402 4.67331 14.6604 4.04337 15.0584 3.33565C15.4879 2.66645 15.865 1.96431 16.1861 1.23565C16.2839 1.00519 16.4516 0.812043 16.6649 0.684009C16.8782 0.555974 17.1262 0.499653 17.3732 0.523149H20.5487C20.6425 0.514104 20.7369 0.514104 20.8306 0.523149C21.5726 0.523149 22.0103 0.740649 22.1884 1.16065C22.3664 1.58065 22.3145 2.40565 20.4374 4.61815L19.6955 5.46565C19.336 5.81847 19.0264 6.21976 18.7755 6.65815C19.0565 6.98108 19.3754 7.2682 19.7251 7.51315C20.5778 8.16264 21.3283 8.93894 21.951 9.81565C22.097 9.98613 22.1925 10.1948 22.2266 10.4176C22.2608 10.6405 22.2321 10.8685 22.1439 11.0756C21.9884 11.3051 21.7803 11.4931 21.5375 11.6237C21.2946 11.7542 21.0241 11.8235 20.749 11.8256L17.9371 11.8631L17.7664 11.8331ZM13.8268 8.20315C14.4945 8.20315 15.0732 8.79565 15.689 9.41815C16.0217 9.78534 16.3951 10.1125 16.8019 10.3931C17.1096 10.6 17.4711 10.7096 17.8406 10.7081H17.9148L20.7342 10.6706C20.8732 10.6626 21.0094 10.6269 21.1348 10.5656L21.0606 10.4456C20.499 9.67196 19.8292 8.98479 19.0722 8.40565C18.1893 7.65565 17.7368 7.30315 17.6848 6.72565C17.6329 6.14815 18.0484 5.64565 18.8793 4.69315L19.6213 3.86065C20.2477 3.21479 20.7619 2.46681 21.1422 1.64815C20.9767 1.63823 20.8107 1.63823 20.6451 1.64815H17.4029C17.3443 1.6349 17.2835 1.6349 17.2248 1.64815C16.8814 2.44423 16.4719 3.20947 16.0006 3.93565C14.5984 6.05065 13.938 6.33565 13.4706 6.33565C13.3257 6.33565 13.183 6.29959 13.0551 6.23065C12.3132 5.80315 12.3132 4.85065 12.3577 4.16065C12.3577 4.04815 12.3577 3.93565 12.3577 3.83815C12.3577 3.35065 12.3577 2.93065 12.3948 2.57065C12.4542 1.31065 12.3948 1.30315 12.1129 1.23565C11.6586 1.14491 11.1958 1.10467 10.7329 1.11565H10.221C9.74988 1.10581 9.27872 1.13088 8.81127 1.19065C8.88206 1.24338 8.94459 1.30659 8.99676 1.37815C9.30278 1.8659 9.4554 2.43595 9.4345 3.01315C9.53095 4.25065 9.47902 5.86315 8.69256 6.25315C8.5533 6.31903 8.40115 6.35235 8.2474 6.35065C7.5574 6.35065 6.87482 5.69065 5.70998 3.90565C5.26298 3.22218 4.86383 2.50794 4.51547 1.76815L4.45611 1.69315C4.38118 1.65454 4.30126 1.62677 4.21869 1.61065H1.25095H1.19901C1.63676 2.52565 3.71418 6.57565 6.03643 8.69815C7.34044 9.90918 9.02993 10.6088 10.7997 10.6706H12.1722C12.2422 10.6555 12.3097 10.6303 12.3726 10.5956C12.3726 10.5956 12.3726 10.5956 12.3726 10.5281C12.3726 10.3256 12.3726 8.57815 13.5448 8.27815C13.6356 8.24202 13.7302 8.21685 13.8268 8.20315Z" fill="#192144"/>
</symbol><symbol id="line" viewBox="0 0 17 287">
<circle cx="14" cy="3" r="3" fill="#1D2E5B"/>
<circle cx="14" cy="284" r="3" fill="#1D2E5B"/>
<rect x="2" y="2" width="11" height="2" fill="#1D2E5B"/>
<rect y="283" width="12" height="2" fill="#1D2E5B"/>
<rect y="285" width="283" height="2" transform="rotate(-90 0 285)" fill="#1D2E5B"/>
</symbol><symbol id="line_country" viewBox="0 0 14 274">
<circle cx="7" cy="7" r="7" fill="#1D2E5B"/>
<circle cx="7" cy="267" r="7" fill="#1D2E5B"/>
<line x1="7" y1="13" x2="7" y2="261" stroke="#1D2E5B" stroke-width="2"/>
</symbol><symbol id="minus" viewBox="0 0 14 2">
<line y1="1" x2="14" y2="1" stroke="#CCCCCC" stroke-width="2"/>
</symbol><symbol id="plus" viewBox="0 0 14 14">
<line y1="6.69995" x2="14" y2="6.69995" stroke="#CCCCCC" stroke-width="2"/>
<line x1="6.7" y1="14" x2="6.7" stroke="#CCCCCC" stroke-width="2"/>
</symbol><symbol id="polygon" viewBox="0 0 11 12">
<path d="M10.0698 6.07495L0.157238 11.7041L0.157238 0.445786L10.0698 6.07495Z" fill="#1D2E5B"/>
</symbol><symbol id="tick" viewBox="0 0 9 9">
<path d="M2.83484 8.46392L0.388824 5.80546V5.44435V4.72213C0.388824 4.75169 0.388824 4.69256 0.388824 4.72213C0.388824 4.56696 0.388875 4.36102 0.388875 4.36102V3.63879L2.82803 5.99046C2.91165 6.07814 3.04776 6.07712 3.13138 5.98944L8.33331 0.388794V1.88575V2.55546C8.33331 2.91657 8.33331 2.91657 8.33331 2.91657L3.86155 7.69823L3.86253 7.69925L3.13819 8.4629C3.05457 8.55058 2.91845 8.55058 2.83484 8.46392Z" fill="#161C35"/>
</symbol></svg>