<svg width="0" height="0" class="hidden">
  <symbol fill="none" xmlns="http://www.w3.org/2000/svg" viewBox="0 0 9 19" id="arrow">
    <path d="M8.812.4a1.064 1.064 0 00-.345-.26.958.958 0 00-.814 0c-.13.06-.246.149-.345.26L.248 8.373a.972.972 0 00-.183.31 1.063 1.063 0 000 .732.972.972 0 00.183.31l7.06 7.972a.978.978 0 001.504 0c.416-.47.071-.964-.345-1.434l-3.718-4.178-2.62-3.067 6.692-7.714s.407-.442-.01-.902z" fill="#000"></path>
  </symbol>
  <symbol fill="none" xmlns="http://www.w3.org/2000/svg" viewBox="0 0 12 16" id="arrow-back">
    <path d="M.638 5.098a.862.862 0 00-.162.275.946.946 0 000 .649.861.861 0 00.162.274l4.96 5.627a.605.605 0 00.193.147.534.534 0 00.456 0 .594.594 0 00.193-.147l4.96-5.627a.928.928 0 000-1.198c-.293-.332-.6-.057-.892.275l-2.6 2.963L6 10.424 1.2 5.091s-.275-.325-.562.007z" fill="#000" opacity=".3"></path>
  </symbol>
  <symbol fill="none" xmlns="http://www.w3.org/2000/svg" viewBox="0 0 16 35" id="border-level">
    <path stroke="#CBCED9" d="M8.5 22.826V35m0-35v12.174M0 17h16"></path>
  </symbol>
  <symbol fill="none" xmlns="http://www.w3.org/2000/svg" viewBox="0 0 21 21" id="button-delete">
    <circle cx="10.5" cy="10.5" r="10.5" fill="#EDEFF6"></circle>
    <path d="M13.875 7.125l-6.75 6.75m0-6.75l6.75 6.75" stroke="#AFB0B5" stroke-linecap="round" stroke-linejoin="round"></path>
  </symbol>
  <symbol fill="none" xmlns="http://www.w3.org/2000/svg" viewBox="0 0 8 11" id="direction">
    <path d="M3.646 10.354a.5.5 0 00.708 0l3.182-3.182a.5.5 0 10-.708-.708L4 9.293 1.172 6.464a.5.5 0 10-.708.708l3.182 3.182zM3.5 0v10h1V0h-1z" fill="#CBCED9"></path>
  </symbol>
  <symbol fill="none" xmlns="http://www.w3.org/2000/svg" viewBox="0 0 17 3" id="filter_expand">
    <circle cx="1.5" cy="1.5" r="1.5" fill="#192144"></circle>
    <circle cx="8.5" cy="1.5" r="1.5" fill="#192144"></circle>
    <circle cx="15.5" cy="1.5" r="1.5" fill="#192144"></circle>
  </symbol>
  <symbol xmlns="http://www.w3.org/2000/svg" viewBox="0 0 60 60" id="htmlacademy">
    <path fill="#2E368F" d="M30.2 5H30L10.3 7.1v36.2L30 55l19.7-11.7V7.1L30.2 5zm17 36.8L30 52 12.8 41.8V27l17.1 10.2V39l-11.7-7v1.8L30 40.9v1.9l-11.8-7v1.8l11.8 7 11.9-7.1v-7.6l5.3-3.2v15.1zm-.1-17l-4.7 2.8-2.2 1.3-10.3-6.1v1.8l8.8 5.3h-.1l-.2.1-1.3.7-7.3-4.3v1.8l5.8 3.4-1.4.9-4.3-2.6v1.8l2.9 1.7-2.9 1.7-17-10.1 17-10.2 17.2 10zm.1-1.8L29.9 12.8 12.8 23V9.4L30 7.6l17.2 1.8V23z"></path>
  </symbol>
  <symbol fill="none" xmlns="http://www.w3.org/2000/svg" viewBox="0 0 32 16" id="icon_arrow_bend">
    <path fill-rule="evenodd" clip-rule="evenodd" d="M4 16h24a4 4 0 004-4V7a4 4 0 00-4-4H4v2h24a2 2 0 012 2v5a2 2 0 01-2 2H4v2z" fill="#fff"></path>
    <path d="M0 4L9 .536v6.928L0 4z" fill="#fff"></path>
  </symbol>
  <symbol fill="none" xmlns="http://www.w3.org/2000/svg" viewBox="0 0 25 24" id="icon_bicycle">
    <path opacity=".15" d="M18.308 21a4.21 4.21 0 01-2.363-.727 4.3 4.3 0 01-1.566-1.935 4.37 4.37 0 01-.242-2.492 4.331 4.331 0 011.163-2.208 4.234 4.234 0 012.178-1.18 4.198 4.198 0 012.457.245 4.27 4.27 0 011.908 1.589 4.357 4.357 0 01-.53 5.443A4.227 4.227 0 0118.308 21zm0-7.125c-.549 0-1.085.165-1.541.474a2.804 2.804 0 00-1.022 1.262 2.85 2.85 0 00-.158 1.625c.107.546.372 1.047.76 1.44a2.737 2.737 0 003.022.61c.507-.213.94-.573 1.244-1.036a2.84 2.84 0 00-.345-3.55 2.757 2.757 0 00-1.96-.825zM6.104 21a4.21 4.21 0 01-2.362-.727 4.3 4.3 0 01-1.566-1.935 4.369 4.369 0 01-.242-2.492 4.331 4.331 0 011.163-2.208 4.235 4.235 0 012.178-1.18 4.198 4.198 0 012.457.245 4.27 4.27 0 011.908 1.589 4.356 4.356 0 01-.53 5.443A4.227 4.227 0 016.104 21zm0-7.125c-.548 0-1.084.165-1.54.474a2.804 2.804 0 00-1.022 1.262 2.85 2.85 0 00-.158 1.625c.107.546.372 1.047.76 1.44a2.738 2.738 0 003.022.61c.507-.213.94-.573 1.245-1.036a2.84 2.84 0 00-.346-3.55 2.758 2.758 0 00-1.96-.825zM15.164 6a1.456 1.456 0 001.05-.44 1.495 1.495 0 00.43-1.065 1.495 1.495 0 00-.426-1.06 1.458 1.458 0 00-1.61-.323 1.478 1.478 0 00-.804.81 1.518 1.518 0 00.316 1.635A1.477 1.477 0 0015.164 6z" fill="#1D2E5B"></path>
    <path opacity=".15" d="M17.362 9H15.34a.183.183 0 01-.163-.097L13.71 6.176a1.447 1.447 0 00-.435-.511 1.422 1.422 0 00-1.279-.204 1.43 1.43 0 00-.568.352l-3.23 3.3c-.27.28-.425.656-.43 1.05 0 .815.583 1.106.856 1.27 1.317.77 2.245 1.332 2.754 1.645a.187.187 0 01.088.16v3.24c0 .404.306.75.704.77a.732.732 0 00.546-.206.75.75 0 00.23-.542v-4.031a.757.757 0 00-.308-.61l-1.71-1.247a.187.187 0 01-.077-.134.19.19 0 01.05-.147l1.941-2.1A.185.185 0 0113 8.173a.183.183 0 01.139.095l1.008 1.846a.745.745 0 00.647.386h2.589a.73.73 0 00.536-.232A.751.751 0 0017.362 9z" fill="#1D2E5B"></path>
  </symbol>
  <symbol fill="none" xmlns="http://www.w3.org/2000/svg" viewBox="0 0 18 21" id="icon_bus">
    <g clip-path="url(#clip0)">
      <path d="M4.34 13.948a1.3 1.3 0 00-.415-.97 1.392 1.392 0 00-1.004-.4c-.392 0-.726.133-1.003.4a1.3 1.3 0 00-.416.97c0 .38.138.702.416.97a1.39 1.39 0 001.003.402c.392 0 .726-.134 1.004-.402.277-.268.415-.59.415-.97zm11.356 0a1.3 1.3 0 00-.416-.97 1.392 1.392 0 00-1.004-.4c-.392 0-.726.133-1.003.4a1.3 1.3 0 00-.416.97c0 .38.138.702.416.97a1.39 1.39 0 001.003.402c.392 0 .726-.134 1.004-.402a1.3 1.3 0 00.416-.97zm-.51-4.242l-.799-4.115a.695.695 0 00-.25-.401.698.698 0 00-.449-.156H3.508a.692.692 0 00-.448.156.695.695 0 00-.25.401l-.798 4.115a.661.661 0 00.155.568c.14.164.322.246.543.246h11.777a.682.682 0 00.543-.246.661.661 0 00.155-.568zm-2.507-6.558a.488.488 0 00-.155-.364.523.523 0 00-.377-.15H5.05a.523.523 0 00-.377.15.488.488 0 00-.155.364.523.523 0 00.532.514h7.097c.148 0 .274-.05.377-.15a.488.488 0 00.155-.364zm4.436 7.768v6.461h-1.42v1.372a1.3 1.3 0 01-.415.97 1.392 1.392 0 01-1.004.4c-.392 0-.726-.133-1.003-.4a1.299 1.299 0 01-.416-.97v-1.372H4.34v1.372c0 .378-.138.701-.415.97a1.392 1.392 0 01-1.004.4c-.392 0-.726-.133-1.003-.4a1.299 1.299 0 01-.416-.97v-1.372H.082v-6.46c0-.8.093-1.597.278-2.39l1.142-4.864c.066-.557.427-1.047 1.08-1.468.655-.422 1.505-.74 2.551-.954C6.18 1.027 7.334.92 8.6.92c1.264 0 2.419.107 3.465.321 1.046.215 1.896.532 2.55.954.655.421 1.015.91 1.082 1.468l1.164 4.864c.17.729.255 1.525.255 2.39z" fill="#1D2E5B"></path>
    </g>
    <defs>
      <clipPath id="clip0">
        <path fill="#fff" transform="translate(.08 .92)" d="M0 0h17.04v19.2H0z"></path>
      </clipPath>
    </defs>
  </symbol>
  <symbol fill="none" xmlns="http://www.w3.org/2000/svg" viewBox="0 0 28 28" id="icon_businessman">
    <path d="M23.376 23.242v-3.349c0-.937-.134-1.875-.67-2.812-.536-.938-1.205-1.742-2.143-2.277-.938-.67-2.947-.804-3.884-.804l-2.143 2.277.803 1.741v4.018L14 23.51l-1.34-1.474v-4.018l.938-1.741L11.321 14c-1.071 0-3.08.134-4.018.804-.938.535-1.473 1.339-2.009 2.277-.536.937-.67 1.74-.67 2.812v3.349S8.107 24.715 14 24.715c5.893 0 9.376-1.473 9.376-1.473zM14 3.419c-2.545 0-4.018 2.41-3.616 5.09.401 2.678 1.74 4.554 3.616 4.554 1.875 0 3.215-1.876 3.616-4.554.402-2.813-1.071-5.09-3.616-5.09z" fill="#132576"></path>
  </symbol>
  <symbol fill="none" xmlns="http://www.w3.org/2000/svg" viewBox="0 0 19 19" id="icon_call">
    <path d="M9.774 8.224c0 .189.154.337.342.337a.7.7 0 01.703.696.34.34 0 00.341.337.34.34 0 00.342-.337 1.38 1.38 0 00-1.386-1.37.34.34 0 00-.342.337zm5.558 1.37a.338.338 0 00.341-.337c0-3.031-2.492-5.495-5.557-5.495a.34.34 0 00-.342.338.34.34 0 00.342.337c2.69 0 4.875 2.164 4.875 4.82a.34.34 0 00.341.337z" fill="#161C35"></path>
    <path d="M12.905 9.257a.34.34 0 00.341.337.34.34 0 00.341-.337c0-1.894-1.556-3.433-3.471-3.433a.34.34 0 00-.342.338c0 .189.154.337.342.337 1.54 0 2.789 1.239 2.789 2.758zM10.115 1.7a.34.34 0 00-.34.337.34.34 0 00.34.338c3.841 0 6.965 3.088 6.965 6.882 0 .185.15.337.341.337a.34.34 0 00.342-.337c0-4.168-3.431-7.557-7.647-7.557zm3.336 11.114l-.447.24c-.755.408-1.342 1.527-2.273.684L8.301 11.3 6.2 9.257c-1.055-1.334.126-1.65.54-2.4l.242-.439c.273-.5.372-1.06.29-1.62a2.557 2.557 0 00-.744-1.475 2.636 2.636 0 00-1.868-.762c-.706 0-1.372.27-1.87.762l-.174.176c-.922.911-1.028 2.48-.3 4.424C3 9.78 4.383 11.791 6.2 13.587c2.769 2.737 5.851 4.313 8.063 4.313.874 0 1.615-.246 2.14-.766l.178-.176a2.595 2.595 0 00.775-1.85 2.636 2.636 0 00-.775-1.845 2.683 2.683 0 00-3.13-.45z" fill="#161C35"></path>
  </symbol>
  <symbol fill="none" xmlns="http://www.w3.org/2000/svg" viewBox="0 0 16 16" id="icon_close">
    <path d="M14 2L2 14M2 2l12 12" stroke="#192144" stroke-width="2" stroke-linecap="round" stroke-linejoin="round"></path>
  </symbol>
  <symbol fill="none" xmlns="http://www.w3.org/2000/svg" viewBox="0 0 24 22" id="icon_close_point">
    <path d="M21 2.75L3 19.25m0-16.5l18 16.5" opacity=".1" stroke="#000" stroke-width="1.7" stroke-linecap="round" stroke-linejoin="round"></path>
  </symbol>
  <symbol fill="none" xmlns="http://www.w3.org/2000/svg" viewBox="0 0 11 21" id="icon_facebook">
    <path d="M7.488 20.813H2.129v-9.675H0V6.352h2.066c-.157-2.168.236-3.75 1.195-4.83A4.879 4.879 0 014.896.397 5.078 5.078 0 016.867 0h3.756v4.612H7.669a4.7 4.7 0 00-.197 1.74h3.143v4.785H7.472l.016 9.675zm-4.172-1.125h2.97v-9.675h3.143V7.5H6.286v-.57c0-1.5 0-2.842.785-3.345l.15-.098h2.208V1.125h-2.53a3.821 3.821 0 00-1.497.284c-.472.194-.897.48-1.246.841-.785.922-1.107 2.468-.864 4.605l.079.622H1.179v2.535h2.137v9.675z" fill="#192144"></path>
  </symbol>
  <symbol fill="none" xmlns="http://www.w3.org/2000/svg" viewBox="0 0 16 10" id="icon_filter">
    <path fill="#192144" d="M7.174 0H15v2H7.174zm0 8H15v2H7.174zM0 4h7.826v2H0zm3.913-4H5.87v2H3.913zm0 8H5.87v2H3.913zM9.13 4h1.957v2H9.13zM0 0h2.609v2H0zm0 8h2.609v2H0zm12.391-4H15v2h-2.609z"></path>
  </symbol>
  <symbol fill="none" xmlns="http://www.w3.org/2000/svg" viewBox="0 0 12 13" id="icon_heart">
    <g clip-path="url(#clip0)">
      <path class="path" fill-rule="evenodd" clip-rule="evenodd" d="M6 5.665l.67-1.41c.167-.349.456-.85.865-1.256.401-.4.883-.671 1.465-.671 1.257 0 2.25 1.044 2.25 2.3 0 .954-.415 1.627-1.401 2.655-.253.263-.54.547-.86.86-.83.82-1.864 1.84-2.989 3.202-1.125-1.363-2.159-2.382-2.99-3.201a44.458 44.458 0 01-.859-.861C1.166 6.255.75 5.582.75 4.628c0-1.256.993-2.3 2.25-2.3.582 0 1.064.272 1.465.67.41.407.698.908.865 1.257L6 5.665zm.294 6.532A.387.387 0 016 12.34a.369.369 0 01-.294-.143c-1.2-1.499-2.288-2.57-3.182-3.451C.975 7.218 0 6.258 0 4.628 0 2.923 1.343 1.54 3 1.54c1.2 0 2.04.827 2.553 1.582.195.287.343.564.447.781.13-.272.28-.533.447-.781C6.961 2.366 7.8 1.54 9 1.54c1.658 0 3 1.383 3 3.088 0 1.63-.975 2.59-2.524 4.118-.895.882-1.981 1.953-3.182 3.45z" fill="#192144" opacity=".5"></path>
    </g>
    <defs>
      <clipPath id="clip0">
        <path fill="#fff" transform="translate(0 .79)" d="M0 0h12v12H0z"></path>
      </clipPath>
    </defs>
  </symbol>
  <symbol fill="none" xmlns="http://www.w3.org/2000/svg" viewBox="0 0 18 18" id="icon_instagram">
    <g clip-path="url(#clip0)" fill="#192144">
      <path d="M12.96 2.033a3.274 3.274 0 012.289.936c.607.597.95 1.407.951 2.252v7.791a3.169 3.169 0 01-.951 2.252 3.275 3.275 0 01-2.289.936H5.04a3.274 3.274 0 01-2.284-.938 3.169 3.169 0 01-.949-2.25V5.221a3.169 3.169 0 01.949-2.25 3.274 3.274 0 012.284-.938h7.92zm0-1.062H5.04a4.356 4.356 0 00-3.055 1.244A4.215 4.215 0 00.72 5.221v7.791c0 1.127.455 2.208 1.265 3.005a4.356 4.356 0 003.055 1.245h7.92a4.357 4.357 0 003.055-1.245 4.216 4.216 0 001.265-3.005V5.221a4.216 4.216 0 00-1.265-3.006A4.356 4.356 0 0012.96.971z"></path>
      <path d="M9.007 5.985c.63 0 1.248.184 1.772.529a3.15 3.15 0 011.175 1.408 3.09 3.09 0 01.181 1.813 3.122 3.122 0 01-.873 1.607 3.206 3.206 0 01-1.633.858 3.238 3.238 0 01-1.843-.178 3.18 3.18 0 01-1.431-1.156 3.102 3.102 0 01.395-3.964 3.187 3.187 0 011.035-.68 3.228 3.228 0 011.222-.237zm0-1.063a4.32 4.32 0 00-2.374.705A4.216 4.216 0 005.057 7.51a4.137 4.137 0 00-.246 2.428 4.18 4.18 0 001.167 2.152 4.292 4.292 0 002.186 1.152c.829.162 1.687.08 2.468-.238a4.256 4.256 0 001.917-1.547 4.153 4.153 0 00-.525-5.304c-.396-.39-.866-.7-1.384-.91a4.323 4.323 0 00-1.633-.32zm4.421.808a.957.957 0 00.965-.948.957.957 0 00-.965-.95.957.957 0 00-.965.95c0 .524.432.949.965.949z"></path>
    </g>
    <defs>
      <clipPath id="clip0">
        <path fill="#fff" transform="translate(0 .262)" d="M0 0h18v17.708H0z"></path>
      </clipPath>
    </defs>
  </symbol>
  <symbol fill="none" xmlns="http://www.w3.org/2000/svg" viewBox="0 0 24 25" id="icon_letter">
    <path fill-rule="evenodd" clip-rule="evenodd" d="M19.14 16.466L14.808 12.5l4.33-3.966-.59-.631-6.299 5.769-6.299-5.77-.59.632L9.69 12.5l-4.33 3.966.59.631 4.38-4.011 1.919 1.758 1.92-1.758 4.379 4.011.59-.63zM4.575 6.25c-.81 0-1.465.699-1.465 1.558v9.384c0 .86.65 1.558 1.465 1.558h15.348c.809 0 1.465-.699 1.465-1.558V7.808c0-.86-.65-1.558-1.465-1.558H4.576z" fill="#FFD74B"></path>
  </symbol>
  <symbol fill="none" xmlns="http://www.w3.org/2000/svg" viewBox="0 0 21 21" id="icon_location">
    <path d="M10.5 0a7.876 7.876 0 00-7.875 7.875c0 5.058 3.803 7.27 4.644 8.279C9.29 18.577 9.403 21 10.5 21s1.211-2.423 3.23-4.846c.841-1.01 4.645-3.22 4.645-8.279A7.876 7.876 0 0010.5 0zm0 13.125a5.25 5.25 0 110-10.5 5.25 5.25 0 010 10.5zm0-7.875a2.626 2.626 0 000 5.25 2.626 2.626 0 000-5.25z" fill="#FFD74B"></path>
    <circle cx="10.5" cy="7.875" fill="#161C35" r=".875"></circle>
  </symbol>
  <symbol fill="none" xmlns="http://www.w3.org/2000/svg" viewBox="0 0 19 17" id="icon_mail">
    <path d="M2.017 3.325l6.75 4.23c.226.142.52.21.815.21.295 0 .589-.068.815-.21l6.75-4.23c.44-.276.856-1.35.049-1.35H1.969c-.807 0-.392 1.074.048 1.35zm15.335 2.313l-6.955 4.229c-.306.187-.52.209-.815.209-.295 0-.51-.022-.815-.21-.306-.186-6.42-3.925-6.92-4.229-.35-.214-.347.037-.347.23v7.658c0 .441.51 1.05.9 1.05h14.4c.39 0 .9-.609.9-1.05V5.868c0-.193.004-.444-.348-.23z" fill="#161C35"></path>
  </symbol>
  <symbol fill="none" xmlns="http://www.w3.org/2000/svg" viewBox="0 0 21 23" id="icon_plane">
    <g clip-path="url(#clip0)">
      <path d="M16.783 2.093c-.728.173-1.46.347-1.733.824l-2.107 4.199L1.63 9.806l-.458 1.341 8.658.82-1.47 3.634-3.283.78-.824 1.43 2.369.256.27 1.169c.12.414.545.69.908.604l1.095-.26 1.268 2.163.825-1.428-.81-3.505 2.377-3.03 4.536 7.961.914-1.038L15.213 8.63l2.563-3.895c.276-.477.096-1.255-.085-2.036-.09-.387-.545-.691-.908-.605z" fill="#101D41"></path>
    </g>
    <defs>
      <clipPath id="clip0">
        <path fill="#fff" transform="translate(0 .96)" d="M0 0h20.826v21.12H0z"></path>
      </clipPath>
    </defs>
  </symbol>
  <symbol fill="none" xmlns="http://www.w3.org/2000/svg" viewBox="0 0 14 14" id="icon_plus">
    <path stroke="#C2C4C9" stroke-width="2" d="M7 0v14M0 7h14"></path>
  </symbol>
  <symbol fill="none" xmlns="http://www.w3.org/2000/svg" viewBox="0 0 18 18" id="icon_plus_more">
    <rect y="8.308" width="18" height="1.385" rx=".692" fill="#1D2E5B"></rect>
    <rect x="8.308" y="18" width="18" height="1.385" rx=".692" transform="rotate(-90 8.308 18)" fill="#1D2E5B"></rect>
  </symbol>
  <symbol fill="none" xmlns="http://www.w3.org/2000/svg" viewBox="0 0 21 24" id="icon_run">
    <path d="M14.976 5.76c.95 0 1.721-.86 1.721-1.92s-.77-1.92-1.721-1.92c-.95 0-1.721.86-1.721 1.92s.77 1.92 1.72 1.92zm-1.053 4.77c.198.329.481.581.812.724.33.142.693.168 1.037.073l2.854-.796-.416-1.862-2.854.796L14.17 7.48a1.735 1.735 0 00-1.094-.82l-3.31-.739a1.56 1.56 0 00-1.094.158c-.34.185-.614.49-.783.867l-1.427 3.183 1.54.86 1.427-3.185 1.692.378-4.377 8.138H2.927v1.92h3.816c.601 0 1.166-.357 1.476-.932l1.65-3.068 4.45.992 1.562 5.231 1.632-.607-1.562-5.23a1.955 1.955 0 00-.495-.833 1.665 1.665 0 00-.801-.444l-2.615-.583 1.525-2.836.358.6z" fill="#1D2E5B"></path>
  </symbol>
  <symbol fill="none" xmlns="http://www.w3.org/2000/svg" viewBox="0 0 19 17" id="icon_telephone">
    <path fill-rule="evenodd" clip-rule="evenodd" d="M9.5 1.086c-2.796 0-5.6.473-6.617 1.415-.844.782-1.125 2.162-1.22 3.037 0 0-.013.086-.013.123 0 .343.294.618.654.618.043 0 1.616-.12 2.565-.195.022-.003.045-.006.068-.012.353-.01.638-.281.638-.618l.003-1.217c0-.377.324-.68.723-.68H12.7c.399 0 .723.303.723.68l.003 1.217c0 .337.284.609.638.618.022.006.045.01.069.012.948.074 2.521.195 2.564.195.36 0 .654-.275.654-.618 0-.037-.013-.123-.013-.123-.095-.875-.376-2.255-1.22-3.037-1.017-.942-3.82-1.415-6.617-1.415zm0 8.032c-.723 0-1.308.553-1.308 1.235 0 .683.585 1.236 1.308 1.236.723 0 1.308-.553 1.308-1.236 0-.682-.585-1.235-1.308-1.235zm-.981-2.78v-.773c0-.426-.367-.772-.818-.772-.451 0-.818.346-.818.772v.773l-4.412 4.45a1.504 1.504 0 00-.494 1.107v1.239c0 .682.586 1.235 1.308 1.235h.328v.772c0 .427.366.773.817.773.452 0 .818-.346.818-.773v-.772h8.504v.772c0 .427.366.773.818.773.451 0 .817-.346.817-.773v-.772h.327c.723 0 1.309-.553 1.309-1.236v-1.238c0-.433-.19-.825-.494-1.106l-4.412-4.451v-.773c0-.426-.367-.772-.818-.772-.451 0-.818.346-.818.772v.773H8.52zM9.5 7.882c1.446 0 2.617 1.106 2.617 2.471 0 1.366-1.171 2.472-2.617 2.472s-2.617-1.106-2.617-2.472c0-1.365 1.171-2.47 2.617-2.47z" fill="#FFD74B"></path>
  </symbol>
  <symbol fill="none" xmlns="http://www.w3.org/2000/svg" viewBox="0 0 14 14" id="icon_user">
    <path opacity=".1" d="M4.375 3.93c0 1.523 1.178 2.763 2.625 2.763s2.625-1.24 2.625-2.763c0-1.524-1.178-2.763-2.625-2.763S4.375 2.407 4.375 3.93zm7.292 8.903h.583v-.614c0-2.37-1.832-4.298-4.083-4.298H5.833c-2.251 0-4.083 1.929-4.083 4.298v.614h9.917z" fill="#192144"></path>
  </symbol>
  <symbol fill="none" xmlns="http://www.w3.org/2000/svg" viewBox="0 0 23 12" id="icon_vkontakte">
    <path d="M17.766 11.833a2.981 2.981 0 01-1.543-.472 7.566 7.566 0 01-1.32-1.148c-.327-.33-.869-.885-1.076-.885-.208 0-.356.69-.349 1.178a1.32 1.32 0 01-.349.907 1.666 1.666 0 01-.905.375H10.8a8.35 8.35 0 01-5.513-2.25C2.557 7.011.212 2.181.116 1.971A1.014 1.014 0 01.227.86 1.53 1.53 0 011.237.5h3.115c.25.037.49.126.704.262.202.137.363.326.467.548.32.692.687 1.361 1.099 2.002.971 1.5 1.402 1.845 1.558 1.92a6.154 6.154 0 00.14-2.152 2.045 2.045 0 00-.155-.96.98.98 0 00-.572-.218l-.541-.517C6.949.89 7.49.463 7.869.298a6.382 6.382 0 012.337-.285h.527a6.688 6.688 0 011.595.15c1.261.27 1.217 1.298 1.165 2.483 0 .345-.037.75-.037 1.215v.36c-.03.326-.007.655.067.975a6.803 6.803 0 001.535-1.86c.43-.67.807-1.372 1.128-2.1.098-.23.266-.424.479-.552.213-.128.461-.184.708-.16h3.176c.093-.01.188-.01.282 0 .742 0 1.18.217 1.357.637.178.42.127 1.245-1.75 3.457l-.742.848c-.36.352-.67.754-.92 1.192.28.323.6.61.95.855.852.65 1.602 1.426 2.225 2.303a1.206 1.206 0 01.193 1.26 1.693 1.693 0 01-1.395.75l-2.812.037-.17-.03zm-3.94-3.63c.668 0 1.247.593 1.863 1.215.333.367.706.695 1.113.975.308.207.67.317 1.039.315h.074l2.82-.037a1.05 1.05 0 00.4-.105l-.074-.12a9.864 9.864 0 00-1.989-2.04c-.883-.75-1.335-1.103-1.387-1.68-.052-.578.363-1.08 1.194-2.033l.742-.832a8.047 8.047 0 001.521-2.213 4.155 4.155 0 00-.497 0h-3.242a.404.404 0 00-.178 0A15.422 15.422 0 0116 3.936c-1.403 2.115-2.063 2.4-2.53 2.4a.876.876 0 01-.416-.105c-.742-.428-.742-1.38-.697-2.07v-.323c0-.487 0-.907.037-1.267.06-1.26 0-1.268-.282-1.335a6.285 6.285 0 00-1.38-.12h-.512a9.543 9.543 0 00-1.41.075.88.88 0 01.186.187 2.89 2.89 0 01.438 1.635c.096 1.238.044 2.85-.742 3.24-.14.066-.292.1-.446.098-.69 0-1.372-.66-2.537-2.445a17.617 17.617 0 01-1.195-2.138l-.059-.075a.891.891 0 00-.237-.082h-3.02c.438.915 2.515 4.965 4.837 7.087a7.378 7.378 0 004.764 1.973h1.372a.736.736 0 00.2-.075v-.068c0-.202 0-1.95 1.173-2.25a1.23 1.23 0 01.282-.075z" fill="#192144"></path>
  </symbol>
  <symbol fill="none" xmlns="http://www.w3.org/2000/svg" viewBox="0 0 17 287" id="line">
    <circle cx="14" cy="3" r="3" fill="#1D2E5B"></circle>
    <circle cx="14" cy="284" r="3" fill="#1D2E5B"></circle>
    <path fill="#1D2E5B" d="M2 2h11v2H2zM0 283h12v2H0z"></path>
    <path fill="#1D2E5B" d="M0 285V2h2v283z"></path>
  </symbol>
  <symbol fill="none" xmlns="http://www.w3.org/2000/svg" viewBox="0 0 14 274" id="line_country">
    <circle cx="7" cy="7" r="7" fill="#1D2E5B"></circle>
    <circle cx="7" cy="267" r="7" fill="#1D2E5B"></circle>
    <path stroke="#1D2E5B" stroke-width="2" d="M7 13v248"></path>
  </symbol>
  <symbol fill="none" xmlns="http://www.w3.org/2000/svg" viewBox="0 0 14 2" id="minus">
    <path stroke="#CCC" stroke-width="2" d="M0 1h14"></path>
  </symbol>
  <symbol fill="none" xmlns="http://www.w3.org/2000/svg" viewBox="0 0 14 14" id="plus">
    <path stroke="#CCC" stroke-width="2" d="M0 6.7h14M6.7 14V0"></path>
  </symbol>
  <symbol fill="none" xmlns="http://www.w3.org/2000/svg" viewBox="0 0 11 12" id="polygon">
    <path d="M10.07 6.075l-9.913 5.63V.444l9.913 5.63z" fill="#1D2E5B"></path>
  </symbol>
  <symbol fill="none" xmlns="http://www.w3.org/2000/svg" viewBox="0 0 9 9" id="tick">
    <path d="M2.835 8.464L.389 5.805V4.722c0 .03 0-.03 0 0V3.64l2.439 2.35c.084.088.22.087.303 0L8.333.388v2.527L3.862 7.699V7.7l-.724.764a.209.209 0 01-.303 0z" fill="#161C35"></path>
  </symbol>
</svg>
